<svg xmlns="http://www.w3.org/2000/svg" viewBox="0 0 17.35 33.77"><defs><style>.cls-1{fill:#aedfe9;}</style></defs><title>Asset 3</title><g id="Layer_2" data-name="Layer 2"><g id="Layer_1-2" data-name="Layer 1"><path class="cls-1" d="M14.58,1a2.31,2.31,0,0,0-1.44-1H4.33A2.31,2.31,0,0,0,2.89,1C-1.17,5.88.11,23.38,1.23,33.37l.05.4H4.75l.1,0h0l.08,0H5a8.37,8.37,0,0,1,3.82-.89,7.75,7.75,0,0,1,3.79.89h0l0,0h3.56l0-.4C17.36,23.38,18.64,5.88,14.58,1Z"/><path class="cls-1" d="M16.08,33.77H12.67v-.89h2.62c3.4-30.69-2.3-32-2.36-32L13,0a2.31,2.31,0,0,1,1.44,1c4.06,4.91,2.78,22.41,1.66,32.4Z"/><path class="cls-1" d="M4.63,33.77H1.16l0-.4C0,23.38-1.28,5.88,2.78,1A2.26,2.26,0,0,1,4.22,0l.06.88,0-.44,0,.44c-.06,0-5.75,1.31-2.35,32H4.63Z"/><rect class="cls-1" x="4.25" width="8.74" height="0.88"/><path class="cls-1" d="M4.84,33.71l-.42-.77a9.24,9.24,0,0,1,4.24-1,8.63,8.63,0,0,1,4.22,1l-.43.77a7.72,7.72,0,0,0-3.79-.89A8.37,8.37,0,0,0,4.84,33.71Z"/></g></g></svg>