<svg xmlns="http://www.w3.org/2000/svg" viewBox="0 0 18.9 46.28"><defs><style>.cls-1{fill:#14b2cd;}.cls-2{fill:#fff;}.cls-3{fill:#aedfe9;}</style></defs><title>Asset 5</title><g id="Layer_2" data-name="Layer 2"><g id="Layer_1-2" data-name="Layer 1"><path class="cls-1" d="M14.41,44.54c8.9-23.81,0-42.8,0-42.8L9.46.45,4.33,1.74s-9,18.27,0,42.8l5.13,1.28Z"/><path class="cls-1" d="M9.57,23.71a.32.32,0,0,0-.33.33v7.78a.33.33,0,0,0,.33.33.33.33,0,0,0,.33-.33V24A.33.33,0,0,0,9.57,23.71Z"/><rect class="cls-2" x="9.25" y="0.45" width="0.62" height="13.54"/><rect class="cls-2" x="9.25" y="24.04" width="0.62" height="7.78"/><rect class="cls-2" x="9.25" y="42.32" width="0.62" height="3.51"/><path class="cls-3" d="M15.91,16.52a.33.33,0,0,0-.2-.3L9.93,13.69l-.14,0H9.32l-.14,0L3.37,16.22a.33.33,0,0,0-.2.3v8.71a.28.28,0,0,0,0,.13h0l0,0v0a.34.34,0,0,0,.41.12,15,15,0,0,1,5.9-1.17,15.05,15.05,0,0,1,5.91,1.17l.13,0h.14l.06,0,0,0,0,0,0-.06h0a.28.28,0,0,0,0-.13Z"/><path class="cls-3" d="M12.52,42.65H6.67a.33.33,0,0,1-.32-.25L3.77,33.1A.33.33,0,0,1,4,32.71a13.34,13.34,0,0,1,11.19,0,.33.33,0,0,1,.17.39l-2.47,9.3A.33.33,0,0,1,12.52,42.65Z"/><rect class="cls-1" x="8.7" y="15.74" width="1.74" height="7.04" rx="0.67"/><rect class="cls-1" x="8.7" y="33.3" width="1.74" height="7.04" rx="0.67"/><path class="cls-1" d="M9.57,46.28,4.11,44.91,4,44.69A62.65,62.65,0,0,1,.62,13.88,45.35,45.35,0,0,1,4,1.55l.09-.18L9.57,0l5.26,1.37.09.19a48.38,48.38,0,0,1,3.37,12.59,62.17,62.17,0,0,1-3.36,30.54l-.08.21Zm-4.8-2.11,4.8,1.2,4.61-1.2a61.34,61.34,0,0,0,3.24-29.9A49.57,49.57,0,0,0,14.2,2.12L9.57.91,4.75,2.12A46.41,46.41,0,0,0,1.49,14.05,61.83,61.83,0,0,0,4.77,44.17Z"/></g></g></svg>