<svg xmlns="http://www.w3.org/2000/svg" viewBox="0 0 17.88 61.91"><defs><style>.cls-1{fill:#14b2cd;}.cls-2{fill:#aedfe9;}.cls-3{fill:#fff;}</style></defs><title>Asset 4</title><g id="Layer_2" data-name="Layer 2"><g id="Layer_1-2" data-name="Layer 1"><path class="cls-1" d="M17.86,24.43c0-.9-.55-21.95-8.78-24.39H8.8C.57,2.48,0,23.53,0,24.43c-.58,34,8.39,37.34,8.77,37.46h0a.27.27,0,0,0,.13,0,.34.34,0,0,0,.14,0C9.46,61.77,18.43,58.46,17.86,24.43Z"/><path class="cls-2" d="M15.27,28.45c0-.33,0-.75-.07-1.23a.34.34,0,0,0-.17-.28h0L9.81,24.26a1.51,1.51,0,0,0-.72-.18H8.77a1.58,1.58,0,0,0-.73.18L2.8,27h0a.34.34,0,0,0-.17.27c-.13,1.68-.19,2.87-.27,4.5-.38,8,1.12,15.82,2.8,23a.29.29,0,0,0,.16.21h0l3,1.75a.7.7,0,0,0,1.07,0l3-1.68h0a.29.29,0,0,0,.16-.2C14.91,44.64,15.77,36.26,15.27,28.45Z"/><rect class="cls-1" x="5.1" y="31.31" width="1.74" height="5.01" rx="0.67" transform="translate(-20.37 11.79) rotate(-40.08)"/><rect class="cls-1" x="11.17" y="31.31" width="1.74" height="5.01" rx="0.67" transform="translate(-0.53 67.44) rotate(-139.92)"/><rect class="cls-1" x="8.14" y="43.6" width="1.74" height="7.04" rx="0.67"/><rect class="cls-3" x="8.36" y="14.04" width="1.28" height="7.04" rx="0.5"/><path class="cls-1" d="M17.86,24.41c0-.9-.55-21.95-8.79-24.39H8.82C.57,2.44,0,23.51,0,24.41c-.58,34,8.39,37.34,8.77,37.46h0a.28.28,0,0,0,.13,0,.35.35,0,0,0,.14,0C9.46,61.75,18.43,58.44,17.86,24.41ZM13.08,55.34C11.29,59.51,9.45,60.71,8.94,61c-.51-.26-2.35-1.46-4.13-5.63C1.29,47.13.75,34,.91,24.43c0-.21.52-21.09,8-23.53,7.51,2.44,8,23.32,8,23.53C17.14,34,16.59,47.13,13.08,55.34Z"/></g></g></svg>