<svg id="Layer_1" data-name="Layer 1" xmlns="http://www.w3.org/2000/svg" viewBox="0 0 50 50"><defs><style>.cls-1{fill:#14b2cd;}.cls-2{fill:#fff;}</style></defs><title>Artboard 1</title><circle class="cls-1" cx="25" cy="25" r="24.12"/><path class="cls-2" d="M11.37,35.64S16,28,39.1,26l-1.46,2.68L41,29.89S23.7,40.21,11.37,35.64Z"/><path class="cls-1" d="M34.61,28.64l-4.08-2.91c-.57.13-1.14.28-1.7.42l-1,.26,6.1,3.5A3.85,3.85,0,0,0,35,30c.14,0,.31-.05.36-.16s0-.39-.32-.71A4.7,4.7,0,0,0,34.61,28.64Z"/><path class="cls-1" d="M34.85,30.2a5.54,5.54,0,0,1-.94-.11h0l-6.51-3.73.44-.12,1-.26.19,0,1.51-.37.08,0,4.16,3a4.7,4.7,0,0,1,.5.51c.32.4.44.7.34.92a.63.63,0,0,1-.51.26ZM34,29.73a4,4,0,0,0,1,.09.67.67,0,0,0,.21-.06,1.06,1.06,0,0,0-.29-.51,4.33,4.33,0,0,0-.45-.47l-4-2.85-1.42.35-.19,0-.54.14Z"/><path class="cls-1" d="M34.85,30.35a4.69,4.69,0,0,1-1-.11h-.06L27,26.3l.8-.22,1-.26.19-.05,1.51-.37.15,0,4.23,3a4.48,4.48,0,0,1,.51.53c.38.46.5.81.36,1.08a.69.69,0,0,1-.62.35Zm-.78-.77a3.07,3.07,0,0,0,.94.08h0a2.69,2.69,0,0,0-.22-.32,4.57,4.57,0,0,0-.43-.44l-3.93-2.8c-.45.1-.91.22-1.35.33l-.19.05-.18.05Z"/><path class="cls-1" d="M34.85,30.54a5.24,5.24,0,0,1-1-.12h-.09l-7.27-4.17,1.23-.34,1-.26.2-.05,1.51-.37.23,0L35,28.24a4.58,4.58,0,0,1,.54.55c.43.52.55.94.38,1.29a.94.94,0,0,1-.77.45Zm-1-.49h0a5.33,5.33,0,0,0,.93.11h.21a.56.56,0,0,0,.48-.25c.09-.2,0-.49-.34-.88a4.91,4.91,0,0,0-.48-.5l-4.16-3-.07,0L29,26l-.2.05-1,.26-.36.1Zm1-.19a4,4,0,0,1-.81-.1h0l-5.75-3.3.44-.11.18-.05.2-.05c.44-.11.89-.23,1.34-.33l.09,0,4,2.86a4.56,4.56,0,0,1,.44.47,1.37,1.37,0,0,1,.24.35l.12.23-.26,0h-.21Zm-.72-.45.56.07v0a4,4,0,0,0-.4-.41L30.42,26.3l-1.19.29Z"/><path class="cls-1" d="M24.13,27.72l.45-.35-2.37.74a18.57,18.57,0,0,0,1,4.4c.31.7.51.75.58.74s.22-.19.32-.5a3.15,3.15,0,0,0,.12-.51l-.11-4.49Z"/><path class="cls-1" d="M23.74,33.44c-.24,0-.47-.27-.73-.85a17.42,17.42,0,0,1-1-4.46L22,28l.32-.1,2.2-.69,1-.31-.84.64-.41.31.11,4.43h0a4.43,4.43,0,0,1-.12.54c-.13.4-.28.6-.48.63Zm0-.36Zm-1.29-4.84a16.33,16.33,0,0,0,.93,4.19,1.78,1.78,0,0,0,.38.63.89.89,0,0,0,.17-.36,4.6,4.6,0,0,0,.12-.47l-.11-4.46-1.47.46Zm1.71-.52,0,0h0Zm0,0v0Z"/><path class="cls-1" d="M23.74,33.6c-.4,0-.67-.5-.87-1a17.3,17.3,0,0,1-1-4.5l0-.28.45-.14L24.48,27l1.83-.56-1.52,1.16-.35.27.1,4.36v0c0,.07-.06.31-.13.56-.15.46-.35.7-.61.73Zm-1.15-5.25a16.31,16.31,0,0,0,.9,4,3,3,0,0,0,.22.42s0-.08.05-.14a3.86,3.86,0,0,0,.1-.43L23.76,28Z"/><path class="cls-1" d="M23.74,33.78h0c-.5,0-.82-.56-1-1.05a17.71,17.71,0,0,1-1-4.56l-.05-.43.61-.19,2.18-.68L27.26,26l-2.36,1.8-.27.21.1,4.28v0a3.35,3.35,0,0,1-.14.58c-.17.54-.41.82-.75.87ZM22,28l0,.13a17.21,17.21,0,0,0,1,4.44c.09.21.37.84.7.84h0c.18,0,.33-.23.45-.61a4.41,4.41,0,0,0,.12-.53h0l-.11-4.44.07-.06.36-.27.69-.53-.83.26-2.18.68Zm1.71,5.18-.2-.29a3.46,3.46,0,0,1-.23-.44,16.75,16.75,0,0,1-.92-4.08l0-.15.15,0,1.17-.37.24-.07.11,4.5v0a3.13,3.13,0,0,1-.11.46.88.88,0,0,1-.05.15Zm-1-4.7a15.54,15.54,0,0,0,.87,3.81s0-.06,0-.08l-.09-4Z"/><path class="cls-2" d="M29.35,24.94l5.26,3.7a4.7,4.7,0,0,1,.47.49c.27.32.38.58.32.71S35.18,30,35,30A3.85,3.85,0,0,1,34,29.91l-6.62-3.72c.53-.35,1.11-.71,1.71-1.05Z"/><path class="cls-2" d="M26.9,18.49l-.6-.44,1.16.06,1.23.05a5,5,0,0,1,2.65.6q.3.19.3.36c0,.13-.18.24-.28.3a2.15,2.15,0,0,1-.3.12l-2.48.39A20.35,20.35,0,0,0,26.9,18.49Z"/><path class="cls-2" d="M18.61,17.41A2.15,2.15,0,1,1,20.14,15,2.16,2.16,0,0,1,18.61,17.41Z"/><path class="cls-2" d="M20.71,21.52h0s.2-.73-.66-2.85h0a1.79,1.79,0,0,1,.89-2.45c.9-.33,2.06.4,2.85.8a15.82,15.82,0,0,1,1.71,1l2.6,2.09q.67.64,1.32,1.38h0A2.33,2.33,0,0,1,30,22.94a1.77,1.77,0,0,1-.66,1.22,3.43,3.43,0,0,1-.59.42,40.11,40.11,0,0,0-4.62,3.14l0,0,.11,4.49a3.15,3.15,0,0,1-.12.51c-.1.31-.21.49-.32.5s-.27,0-.58-.74a23.78,23.78,0,0,1-1.12-5.79c-.07-.68.2-.84.72-1.28l3.59-3a1.42,1.42,0,0,0,0-.68.15.15,0,0,0-.13,0l-1.12,1-2-1.41,0-2.34a1.16,1.16,0,0,0-.52-.29.12.12,0,0,0-.07.11L22.64,22a.94.94,0,0,1-.19.58c-.55.69-2,2.46-2.65,3.22q-.26.29-.39.24c-.14,0-.21-.4-.22-.58Z"/></svg>