<svg xmlns="http://www.w3.org/2000/svg" viewBox="0 0 16.06 76.49"><defs><style>.cls-1{fill:#14b2cd;}.cls-2{fill:#fff;}</style></defs><title>Asset 1</title><g id="Layer_2" data-name="Layer 2"><g id="Layer_1-2" data-name="Layer 1"><path class="cls-1" d="M14.91,11.27c-.34-3.22-1-6.92-3-9.37A4.71,4.71,0,0,0,8,0,4.71,4.71,0,0,0,4.16,1.9c-2,2.45-2.66,6.15-3,9.37C-.43,26.37.71,41.6,1.84,56.68c.16,2.24.34,4.49.62,6.72a43.72,43.72,0,0,0,1.19,6.07c.47,2.41,1.33,4.75,3.16,5.77a2.24,2.24,0,0,0,1.2.38h0a2.21,2.21,0,0,0,1.2-.38c1.83-1,2.7-3.36,3.17-5.77A43.7,43.7,0,0,0,13.6,63.4c.29-2.23.46-4.48.62-6.72C15.36,41.6,16.49,26.37,14.91,11.27Z"/><path class="cls-2" d="M7.12,76a.28.28,0,0,1-.28-.29V.48A.28.28,0,0,1,7.12.19.29.29,0,0,1,7.4.48V75.72A.29.29,0,0,1,7.12,76Z"/><path class="cls-2" d="M9,76a.29.29,0,0,1-.29-.29V.48a.29.29,0,1,1,.57,0V75.72A.29.29,0,0,1,9,76Z"/><path class="cls-1" d="M8,76.49H8a2.65,2.65,0,0,1-1.38-.43C5,75.14,3.9,73.17,3.28,70a44.47,44.47,0,0,1-1.19-6.11c-.29-2.28-.47-4.65-.63-6.74C.34,42.28-.81,26.85.78,11.71c.33-3.1,1-7,3.09-9.58A5.07,5.07,0,0,1,8,.11a5.07,5.07,0,0,1,4.16,2c2.12,2.58,2.76,6.48,3.09,9.58,1.59,15.14.44,30.57-.68,45.48-.16,2.09-.33,4.46-.63,6.74A41.66,41.66,0,0,1,12.78,70c-.61,3.13-1.7,5.1-3.34,6a2.63,2.63,0,0,1-1.39.43ZM7.73.87A4.42,4.42,0,0,0,4.45,2.63c-2,2.42-2.6,6.17-2.92,9.16-1.59,15.08-.43,30.46.68,45.34.16,2.08.33,4.44.62,6.7a43.4,43.4,0,0,0,1.18,6v0c.56,2.9,1.53,4.7,3,5.5H7a1.86,1.86,0,0,0,1,.33H8a1.87,1.87,0,0,0,1-.33h0c1.43-.8,2.4-2.6,3-5.5v0a42,42,0,0,0,1.18-6c.29-2.26.46-4.62.62-6.7,1.12-14.88,2.27-30.26.68-45.34-.31-3-.93-6.74-2.91-9.16A4.34,4.34,0,0,0,8.06.88H7.73Z"/></g></g></svg>