<svg id="Layer_1" data-name="Layer 1" xmlns="http://www.w3.org/2000/svg" viewBox="0 0 50 50"><defs><style>.cls-1{fill:#14b2cd;}.cls-2{fill:#fff;}</style></defs><title>Artboard 7</title><circle class="cls-1" cx="25" cy="25" r="24.04"/><path class="cls-2" d="M30.71,18.72H24.62L24,21.6a7.29,7.29,0,0,1,1.23-.11,6.67,6.67,0,0,1,4.72,1.84,6,6,0,0,1,1.62,4.39,6.37,6.37,0,0,1-1.86,4.77,6.52,6.52,0,0,1-5,1.87,9.07,9.07,0,0,1-3.95-.77A9.24,9.24,0,0,1,18.47,32L19.65,29a5.55,5.55,0,0,0,1.89,1.65,5.48,5.48,0,0,0,2.66.68A3.69,3.69,0,0,0,27,30.19a3.91,3.91,0,0,0,1-2.67A3.11,3.11,0,0,0,26.89,25,4,4,0,0,0,24,24.07a7.46,7.46,0,0,0-3.95,1.18l2.17-9.61h8.45Z"/></svg>