<svg xmlns="http://www.w3.org/2000/svg" xmlns:xlink="http://www.w3.org/1999/xlink" viewBox="0 0 176.83 177.16"><defs><style>.cls-1{fill:none;}.cls-2{clip-path:url(#clip-path);}.cls-3{fill:#18b2ce;}.cls-4{fill:#fff;}</style><clipPath id="clip-path" transform="translate(0)"><rect class="cls-1" width="176.83" height="177.16"/></clipPath></defs><title>Asset 8</title><g id="Layer_2" data-name="Layer 2"><g id="Layer_1-2" data-name="Layer 1"><g class="cls-2"><path class="cls-3" d="M175.78,177.16H1.06A1.06,1.06,0,0,1,0,176.1V1.06A1.06,1.06,0,0,1,1.06,0H175.78a1.06,1.06,0,0,1,1.05,1.06v175a1.06,1.06,0,0,1-1.05,1.06" transform="translate(0)"/></g><path class="cls-4" d="M38,87.79C68.5,92,99,90.3,129.55,87.48c-30.53.88-61.07,1.44-91.6.31M152.32,85.1a9.48,9.48,0,0,1-1.54.94q-3.06,1.17-6.17,2.23c-1,.33-1.2.77-.64,1.7,1,1.62,1.86,3.3,2.78,5,.2.36.37.74.67,1.34-.7,0-1.25.16-1.64,0a47.71,47.71,0,0,1-5-2.56c-1.78-1.1-3.38-2.5-5.16-3.6-1.58-1-1.92-.79-2.22,1-.19,1.15-.81,1.41-1.71.92-3.78-2.11-7.79-2.13-12-1.81-7.64.57-15.3.89-22.95,1.29-4.57.23-9.15.39-13.73.6-14.92.7-29.66-.88-44.33-3.49-3.2-.57-6.44-.94-9.65-1.48a10.06,10.06,0,0,1-2.14-.88c0-.17.11-.35.17-.52,1.12.07,2.25.09,3.38.2A340.94,340.94,0,0,0,71,87.13c11.72-.26,23.44-.79,35.16-1.2,5.44-.19,10.87-.41,16.3-.57,9.33-.27,18.66-.49,28-.73.55,0,1.1,0,1.64,0,.07.16.13.32.19.47" transform="translate(0)"/><path class="cls-4" d="M104.42,32.25l-6.14,3.51A10.38,10.38,0,0,0,95,32a7.85,7.85,0,0,0-4.19-1,8,8,0,0,0-5.24,1.72A5.29,5.29,0,0,0,83.48,37q0,3.56,5.47,5.71l5,2q6.12,2.39,8.94,5.82a12.77,12.77,0,0,1,2.83,8.41,14.56,14.56,0,0,1-4.61,11,16.2,16.2,0,0,1-11.55,4.39,15.82,15.82,0,0,1-10.79-3.73q-4.2-3.74-5.24-10.51l7.68-1.63c.34,2.85,1,4.81,1.82,5.9a8.87,8.87,0,0,0,12.71.84,7.74,7.74,0,0,0,2.34-5.79,7.86,7.86,0,0,0-.4-2.59,6.51,6.51,0,0,0-1.27-2.16,10,10,0,0,0-2.23-1.85,20.86,20.86,0,0,0-3.25-1.65l-4.85-1.94Q75.77,45,75.78,36.92A11.5,11.5,0,0,1,80.1,27.8a16,16,0,0,1,10.76-3.7q8.69,0,13.56,8.15" transform="translate(0)"/><polygon class="cls-4" points="66.97 110.99 78 138.3 89.53 109.01 100.57 138.3 112.29 110.99 119.23 110.99 100.29 154.44 89.39 125.49 78.03 154.47 60.02 110.99 66.97 110.99"/></g></g></svg>