<svg xmlns="http://www.w3.org/2000/svg" width="71.43" height="60.27" viewBox="0 0 71.43 60.27">
  <title>icon_face_happy</title>
  <circle cx="77.36" cy="31.29" r="8.93" transform="translate(-20.94 10.19) rotate(-22.89)" fill="#413232"/>
  <circle cx="8.93" cy="8.93" r="8.93" fill="#413232"/>
  <path d="M24.17,51.38H77a4.49,4.49,0,0,1,4.41,5.27,31.89,31.89,0,0,1-.85,3.66H20.62a30,30,0,0,1-.86-3.66A4.5,4.5,0,0,1,24.17,51.38Z" transform="translate(-14.86 -22.36)" fill="#f0f0f0"/>
  <path d="M20.62,60.31H80.53A31.2,31.2,0,0,1,69.77,76a11.16,11.16,0,0,0-19.2-2.32A11.15,11.15,0,0,0,31.38,76,31.07,31.07,0,0,1,20.62,60.31Z" transform="translate(-14.86 -22.36)" fill="#413232"/>
  <path d="M59.5,69.23A11.21,11.21,0,0,1,69.77,76a31.18,31.18,0,0,1-38.39,0A11.15,11.15,0,0,1,50.57,73.7,11.16,11.16,0,0,1,59.5,69.23Z" transform="translate(-14.86 -22.36)" fill="#ed464e"/>
</svg>
