<svg id="Layer_1" data-name="Layer 1" xmlns="http://www.w3.org/2000/svg" width="93.94" height="47.99" viewBox="0 0 93.94 47.99">
  <path d="M67.69,29.53H19.41A12.1,12.1,0,0,0,7.35,41.59v21h5.73a12.19,12.19,0,0,1,23.83,0H61.26a12.19,12.19,0,0,1,23.82,0H92.9v-7.9a25.28,25.28,0,0,0-25.21-25.2Z" transform="translate(-3.06 -26.01)" fill="none" stroke="#231f20" stroke-linecap="round" stroke-linejoin="round" stroke-width="3.99"/>
  <path d="M11.24,33.37a8.75,8.75,0,0,0-3.89,7v1.27H23.14V33.37Zm78.51,8.27a23.24,23.24,0,0,0-10.11-8.27H66.71v8.27Zm-64.21,0H36.86V33.37H25.54v8.27Zm13.72,0H50.58V33.37H39.26v8.27Zm13.73,0H64.31V33.37H53v8.27Z" transform="translate(-3.06 -26.01)" fill="none" stroke="#231f20" stroke-linecap="round" stroke-linejoin="round" stroke-width="2.02"/>
  <path d="M7.35,45.61v17h5.73l0-.16,0-.09v-.05l.06-.21.06-.23v0l.08-.25c.1-.32.21-.65.34-1v0l.1-.22.09-.2v0l.11-.23h0l.11-.23,0,0,.1-.19,0-.07.09-.15v0c.12-.21.25-.42.38-.63l.13-.19v0l.15-.21h0L15.2,58l0,0,.12-.16.12-.15,0,0,.08-.1.08-.09.11-.13.06-.06L16,57l.17-.19h0l.31-.32,0,0,.06-.05.13-.12,0,0,.13-.12,0,0L17,56l.08-.07.14-.12.05,0,.18-.14,0,0,.21-.16h0l.2-.15,0,0,.17-.11.07-.05.14-.1.11-.07.1-.06,0,0,.17-.11.18-.1,0,0,.22-.12h0l.22-.12h0l.05,0,.21-.1.17-.08.1,0,.14-.06.05,0,.18-.08h0l.17-.07.06,0,.22-.08h0l.24-.08h0l.24-.08,0,0,.21-.06h0l.46-.13h0l.16,0,.1,0,.2,0h.06l.24,0h0l.26,0h0l.24,0h.06l.21,0h.1l.16,0h2.17l.16,0h.11l.2,0h.06l.24,0h0l.26,0h0l.25,0h.05l.2,0,.1,0,.16,0h0l.46.13h0l.2.06,0,0,.25.08h0l.25.08h0l.21.08.06,0,.18.07h0l.18.08.05,0,.14.06.1,0,.17.08.22.1.05,0h0l.23.12h0l.21.12,0,0,.18.1.18.11,0,0,.11.06.1.07.14.1.07.05.17.11,0,0,.2.15h0l.2.16,0,0,.18.14,0,0,.14.12L33,56l.12.1,0,0,.13.12,0,0,.13.12.06.05,0,0,.31.32h0L34,57l.17.19.05.06.11.13.08.09.09.1,0,0,.12.15.12.16,0,0,.14.19h0l.15.21v0l.13.19.14.22.24.41,0,0,.08.15,0,.07.1.19,0,0,.11.23h0l.11.23,0,0,.09.2.09.22v0a9.9,9.9,0,0,1,.34,1l.08.25v0l.07.23.05.21v.05l0,.09,0,.16H61.26a12.19,12.19,0,0,1,23.82,0H92.9V56.75a5.47,5.47,0,0,1-2.15.43,5.53,5.53,0,0,1,0-11,4.49,4.49,0,0,1,.64,0l-.21-.56ZM61.22,62.84H37v.47l0,.15v.21h0V64h0v.62h0v.3h0v.61h0v.3h0v.3h0v1.49l0,.09V68h0v.09l0,0v.14h0v0l0,.05v0H61.41a12.06,12.06,0,0,1-.43-3.2,11.72,11.72,0,0,1,.24-2.38Z" transform="translate(-3.06 -26.01)" fill="#231f20" stroke="#231f20" stroke-linecap="round" stroke-linejoin="round" stroke-width="3.99" fill-rule="evenodd"/>
  <path d="M92.21,62.84H85.12a11.72,11.72,0,0,1,.24,2.38,12.06,12.06,0,0,1-.43,3.2h7.28A2.8,2.8,0,0,0,95,65.63h0a2.8,2.8,0,0,0-2.79-2.79ZM13,62.84H7.85a2.8,2.8,0,0,0-2.8,2.79h0a2.81,2.81,0,0,0,2.8,2.79h5.38A12.41,12.41,0,0,1,13,62.84Z" transform="translate(-3.06 -26.01)" fill="none" stroke="#231f20" stroke-linecap="round" stroke-linejoin="round" stroke-width="3.99"/>
  <path d="M73.17,57.05a8.18,8.18,0,1,0,8.18,8.17,8.17,8.17,0,0,0-8.18-8.17Zm0,5a3.2,3.2,0,1,0,3.2,3.19A3.19,3.19,0,0,0,73.17,62Z" transform="translate(-3.06 -26.01)" fill="#231f20" stroke="#231f20" stroke-linecap="round" stroke-linejoin="round" stroke-width="1.22" fill-rule="evenodd"/>
  <path d="M25,57.05a8.18,8.18,0,1,0,8.17,8.17A8.17,8.17,0,0,0,25,57.05Zm0,5a3.2,3.2,0,1,0,3.19,3.19A3.19,3.19,0,0,0,25,62Z" transform="translate(-3.06 -26.01)" fill="#231f20" stroke="#231f20" stroke-linecap="round" stroke-linejoin="round" stroke-width="1.22" fill-rule="evenodd"/>
  <path d="M75.14,26.62H15.21a3.9,3.9,0,0,0-3.89,3.89H79a3.9,3.9,0,0,0-3.89-3.89Z" transform="translate(-3.06 -26.01)" fill="#231f20" stroke="#231f20" stroke-linecap="round" stroke-linejoin="round" stroke-width="1.22" fill-rule="evenodd"/>
  <path d="M73.17,57.05a8.18,8.18,0,1,0,8.18,8.17,8.17,8.17,0,0,0-8.18-8.17Zm0,5a3.2,3.2,0,1,0,3.2,3.19A3.19,3.19,0,0,0,73.17,62Z" transform="translate(-3.06 -26.01)" fill="#231f20" stroke="#231f20" stroke-linecap="round" stroke-linejoin="round" stroke-width="1.22" fill-rule="evenodd"/>
</svg>
