<svg id="Layer_1" data-name="Layer 1" xmlns="http://www.w3.org/2000/svg" width="79.95" height="88.44" viewBox="0 0 79.95 88.44">
  <title>icon_wave</title>
  <path d="M84.28,83.14c-1.13,4.07-8.58.89-10.77,1.15-1.81.21-4.4,0-2.61,1.92s3.12-.21,4.36.52c.36.21-1.12,5.61-8,3.14-7.19-2.57-15.53-2.27-15.35,1.92.13,3.29-17.8,3.14-11.69-.7,5.7-3.58-5.26-3.69-12.72-6.16C15.79,81.05,11.71,67.49,13.5,67c1.18-.33,5.89,5.1,3.83.85S5.88,40.49,13,41.81c3.54.66-1.18-8.56,7.08-10.53-3.73,3.58-2.62,8.9-1.24,12.88C19.56,24.7,30.53,17,32,17.62s-4.21,6.09-1.47,10.92C28.88,19.85,41.3,10.38,47.72,9.61c2.55-.31-8.78,5.87-3.46,9.4C47.92,12,55.63,8.57,63.88,8.57c6.91,0,14.49,2.3,13.14,6.58-3.62-1.75-9.1-6.25-14.15-2.47,5-1.34,12.47,2.59,10.23,7.78C70.79,11.37,55,17.13,59.43,18s6.13,4.42,3.61,3.6-7.32.3-6.41,1.32c1.11,1.24,6,2.86,7.75,6.74,1.33,2.93-.17,3.35-2.68.64C55.62,23.71,49.63,25.05,46,25.52c-12.64,1.65-1.69,5.59-9.1,7.73-8.41,2.43-7.92,10,.33,6.59,4.32-1.81-1.18,3.45-5.56,7.73-4.06,4-2.45,8.32,1.18,9.07,1.86.39,1-10.93,7.07-7-11.29,6.75,2.46,19.06,8,22.29,22.41,13.16,21.38-3.64,25.25-4.3,5.33-.9-3.44,5.15,1.54,5.61,3.54.33,3.71-5.27,4.55-6.09.93,1.52,4,3.46-.84,7.57,3.23,4.1,7.29-7.76,7.75-3.95.43,3.56-3,9.88-7.92,9.55S84.67,81.76,84.28,83.14ZM65.49,23.33s3.05.78,4.36,5.05C70.84,26.44,70,23.33,65.49,23.33Zm16.12.35c1.68-2.74-1.39-5.52-3.82-6.2L76,17.05C78.32,18.69,79.8,22.17,81.61,23.68Zm4,37.85c0-.62-.13-3.05-1.38-2.53-1,.43.68,2.09-.37,3.83a3.67,3.67,0,0,0-.52,3.06C84.49,64.47,85.66,63.43,85.64,61.53Zm3.57,2.2c-1,.14-1,2.93-1.57,3.46l-.17.88C87.53,68,91.7,63.36,89.21,63.73ZM83,88.48c-.94-.84-4.24.38-5.69-.18l.18.44C79.34,91.1,85.42,90.61,83,88.48ZM10.12,58.65c-.44,1.82,1.41,3,2.54,4.21C12.11,61.38,11.55,59.09,10.12,58.65ZM25.17,19.9c2.3-.32,10.49-9.8,2.63-5.9-1.32.65-.51,2.49-1.59,3.29s-2.58-.28-3.48.55c-3,2.75-2.13,5.85-3.29,9.24l-.69,2.09C20.57,26.22,22.88,20.22,25.17,19.9ZM55.61,6c-1.81-.94-1.89.42-3.81,2.16s-1.31,2-1.31,2C51,9.86,58.51,7.51,55.61,6Z" transform="translate(-10.05 -5.68)" fill="#1b1c20"/>
</svg>
