<svg xmlns="http://www.w3.org/2000/svg" width="84.82" height="70.83" viewBox="0 0 84.82 70.83">
  <title>icon_face_love</title>
  <path d="M25,55.38h52.8a4.5,4.5,0,0,1,4.41,5.27,30,30,0,0,1-.86,3.66H21.47a31.89,31.89,0,0,1-.85-3.66A4.49,4.49,0,0,1,25,55.38Z" transform="translate(-9.02 -15.8)" fill="#f0f0f0"/>
  <path d="M21.47,64.31H81.38A31.07,31.07,0,0,1,70.62,80,11.15,11.15,0,0,0,51.43,77.7,11.16,11.16,0,0,0,32.23,80,31.2,31.2,0,0,1,21.47,64.31Z" transform="translate(-9.02 -15.8)" fill="#413232"/>
  <path d="M60.36,73.23A11.18,11.18,0,0,1,70.62,80a31.18,31.18,0,0,1-38.39,0,11.16,11.16,0,0,1,19.2-2.32A11.16,11.16,0,0,1,60.36,73.23Z" transform="translate(-9.02 -15.8)" fill="#ed464e"/>
  <path d="M90.6,19a11.06,11.06,0,0,1,0,15.64L74.87,50.32,59.13,34.68a11.06,11.06,0,0,1,0-15.64,11.18,11.18,0,0,1,15.74,0A11.17,11.17,0,0,1,90.6,19Z" transform="translate(-9.02 -15.8)" fill="#ed464e"/>
  <path d="M43.73,19a11.08,11.08,0,0,1,0,15.64L28,50.32,12.25,34.68A11.09,11.09,0,0,1,28,19,11.18,11.18,0,0,1,43.73,19Z" transform="translate(-9.02 -15.8)" fill="#ed464e"/>
</svg>
