<svg id="Layer_1" data-name="Layer 1" xmlns="http://www.w3.org/2000/svg" width="75.19" height="77.13" viewBox="0 0 75.19 77.13">
  <title>icon_hand</title>
  <path d="M16,70.36c.35-.41,7.44,0,9.18-9-.18-7.32-.89-15.36,3.55-22.36C32.7,32.84,30.2,23.69,26.05,18c-2.83-3.93-2.9-5.8-.46-5.95,3.48-.21,8.27,1.84,11.1,5.61,2.35,3.15,4.59,9.26,3.65,12.21C43.91,27,47.71,23.73,51.25,25c2.32.83,2.38,2.84,4.63,4.74,1.8,1.51,1.78-.65,5.79,3.31,1,1,2,4.64,3.06,5.58s2.53,1,5.22,4.32a9,9,0,0,1,1.49,5c0,.27,16-7.11,18.91-3C93.57,49.51,73.78,57.79,73,58.59,61.46,70.91,53.24,75.38,46.46,78.86c-1.65,1-2.89,8.39-5.6,10.13S11.5,73.51,16,70.36Z" transform="translate(-15.52 -11.99)" fill="#1b1c20"/>
</svg>
