<svg xmlns="http://www.w3.org/2000/svg" width="71.43" height="69.2" viewBox="0 0 71.43 69.2">
  <title>icon_face_shock</title>
  <path d="M78.07,15.61c6.23,0,8.93,6,8.93,13.39s-2.7,13.4-8.93,13.4-8.93-6-8.93-13.4S71.84,15.61,78.07,15.61Z" transform="translate(-15.57 -15.61)" fill="#413232"/>
  <ellipse cx="8.93" cy="13.39" rx="8.93" ry="13.39" fill="#413232"/>
  <path d="M58,67A11.16,11.16,0,0,1,69.14,78c-4.68-.5-8.46-2.1-17.85-2.1S38.23,77.51,33.43,78a11.17,11.17,0,0,1,17.86-8.8A11,11,0,0,1,58,67Z" transform="translate(-15.57 -15.61)" fill="#ed464e"/>
  <path d="M80.3,69.18a8.7,8.7,0,0,1-8.55,8.93A24.26,24.26,0,0,1,69.14,78,11.16,11.16,0,0,0,58,67a11,11,0,0,0-6.69,2.23A11.17,11.17,0,0,0,33.43,78a24,24,0,0,1-2.61.13c-5.16,0-8.55-4.24-8.55-8.93,0-13.32,16.07-20.09,29-20.09S80.3,55.86,80.3,69.18Z" transform="translate(-15.57 -15.61)" fill="#413232"/>
  <path d="M51.32,80.34c-6.67,0-10.14.83-11.87,1.54S37.77,83.34,38,84s.54.85,1.83.85l.6,0c1.76,0,5-.42,10.8-.45s9.08.41,10.87.45l.59,0c1.29,0,1.62-.27,1.83-.85s.32-1.31-1.42-2.08-5.26-1.49-11.8-1.54" transform="translate(-15.57 -15.61)" fill="#b2b2b2"/>
</svg>
