<svg xmlns="http://www.w3.org/2000/svg" width="74.76" height="36.48" viewBox="0 0 74.76 36.48">
  <title>icon_face_sad</title>
  <path d="M64.85,68.47c-.78.25-1.12-.09-2.55-1.83-1.49-1.56-4.43-4.88-12.68-5a18.75,18.75,0,0,0-8.69,1.93,13.92,13.92,0,0,0-3.8,3,13.73,13.73,0,0,1-1.51,1.66,1.19,1.19,0,0,1-1,.18c-.68-.17-1.56-.67-.53-3.36a11.4,11.4,0,0,1,4.26-4.9c2.55-1.75,6.33-3,11.5-3.07a25.25,25.25,0,0,1,6.53.88,16.58,16.58,0,0,1,4.78,2.19,11.4,11.4,0,0,1,4.26,4.9c1,2.69.15,3.2-.53,3.35" transform="translate(-12.33 -34.86)" fill="#413232"/>
  <path d="M32.37,34.86c.7,0,1.36.42,1.08,2.8a9.33,9.33,0,0,1-2.27,4.66,11,11,0,0,1-16.51,0,9.38,9.38,0,0,1-2.26-4.66,5.69,5.69,0,0,1-.06-1.51,1.52,1.52,0,0,1,.24-.78,1,1,0,0,1,.9-.48,1.61,1.61,0,0,1,1.1.24,2.23,2.23,0,0,1,.5.57,5.79,5.79,0,0,1,.55.8,13.13,13.13,0,0,0,2,2.74,7.31,7.31,0,0,0,10.61,0,13.25,13.25,0,0,0,2-2.74C31,35.1,31.56,34.84,32.37,34.86Z" transform="translate(-12.33 -34.86)" fill="#413232"/>
  <path d="M85.94,34.86c.7,0,1.36.42,1.08,2.8a9.33,9.33,0,0,1-2.27,4.66,10.64,10.64,0,0,1-3.19,2.51A11.43,11.43,0,0,1,77.84,46c-.54.07-.8.05-1.23.08a10.86,10.86,0,0,1-8.36-3.73A9.33,9.33,0,0,1,66,37.66a6.14,6.14,0,0,1-.06-1.51,1.52,1.52,0,0,1,.24-.78,1,1,0,0,1,.9-.48,1.6,1.6,0,0,1,1.1.24,2.06,2.06,0,0,1,.5.57,5.79,5.79,0,0,1,.55.8,13.51,13.51,0,0,0,2,2.74,8.62,8.62,0,0,0,2.09,1.52,7.7,7.7,0,0,0,3.11.76,7.47,7.47,0,0,0,5.42-2.28,13.51,13.51,0,0,0,2-2.74C84.57,35.1,85.13,34.84,85.94,34.86Z" transform="translate(-12.33 -34.86)" fill="#413232"/>
  <path d="M49.88,66.08h-.23c-3.92,0-6.14,1.37-6.85,2.59s0,1.87.68,2.13.86.54,1.26.54a.92.92,0,0,0,.26,0,16.45,16.45,0,0,1,9.43,0l.26,0c.4,0,.66-.25,1.26-.55s1.38-.84.68-2.11-3-2.59-6.75-2.59" transform="translate(-12.33 -34.86)" fill="#b2b2b2"/>
</svg>
