<svg xmlns="http://www.w3.org/2000/svg" width="89.29" height="78.13" viewBox="0 0 89.29 78.13">
  <title>icon_face_favourite</title>
  <polygon points="89.29 13.39 78.13 24.55 82.59 37.95 69.2 31.25 55.8 37.95 60.27 24.55 49.11 13.39 62.5 13.39 69.2 0 75.89 13.39 89.29 13.39" fill="#ff0"/>
  <polygon points="40.18 13.39 29.02 24.55 33.48 37.95 20.09 31.25 6.7 37.95 11.16 24.55 0 13.39 13.39 13.39 20.09 0 26.79 13.39 40.18 13.39" fill="#ff0"/>
  <path d="M24.89,58.22h52.8a4.49,4.49,0,0,1,4.4,5.27,29.92,29.92,0,0,1-.85,3.66H21.33a29.92,29.92,0,0,1-.85-3.66A4.49,4.49,0,0,1,24.89,58.22Z" transform="translate(-6.64 -11.34)" fill="#f0f0f0"/>
  <path d="M21.33,67.15H81.24A31.07,31.07,0,0,1,70.48,82.86a11.15,11.15,0,0,0-19.19-2.32,11.16,11.16,0,0,0-19.2,2.32A31.14,31.14,0,0,1,21.33,67.15Z" transform="translate(-6.64 -11.34)" fill="#413232"/>
  <path d="M60.21,76.07a11.21,11.21,0,0,1,10.27,6.79,31.18,31.18,0,0,1-38.39,0,11.16,11.16,0,0,1,19.2-2.32A11.14,11.14,0,0,1,60.21,76.07Z" transform="translate(-6.64 -11.34)" fill="#ed464e"/>
</svg>
