<svg id="Layer_1" data-name="Layer 1" xmlns="http://www.w3.org/2000/svg" width="80.79" height="91.57" viewBox="0 0 80.79 91.57">
  <title>icon_surfer_male</title>
  <g>
    <path d="M82.13,84.72C80,83.05,42,70.76,37.73,70.41c-1.89-.16-7.11,2.22-6.5,3.66.55,1.27,21.7,17.39,23.21,18.19,5.55,2.91,13.17,4.07,22.1.62C88.77,88.14,83.57,85.87,82.13,84.72Z" transform="translate(-8.77 -3.43)" fill="#1b1c20"/>
    <path d="M89.56,40.36a4.52,4.52,0,0,0-1.63-.56c.49,0,1.52.18,1.54-.31s-1.25-.32-2.46-.71c.2,0,1.64,0,1.62-.3,0-.59-1.32-.39-2-.49-1.29-.18-2.91-.6-4-.76C73.49,29.36,73.28,29.5,70,28.49c0,0,0,0,0,0-1.18-.57-11.09-7.6-16.71-5.88a15.05,15.05,0,0,0-6.39-1,17.47,17.47,0,0,0,.31-5.37c.91-1.79-.18-3.08-.24-4.85a4,4,0,0,0-.22.47A4.68,4.68,0,0,1,47.07,9a4.7,4.7,0,0,0-1,1.54,8.62,8.62,0,0,0-2.22-5c.45.75.36,2.73.06,2.52C44,6,43,5.08,41.25,4.34c1.44.88,1,1.83.72,2.78A3.61,3.61,0,0,1,40,3.64a3.2,3.2,0,0,0-.27,3.8c-.71-.28-1.16-3.88-4.29-4,2,.93,1.31,2.4,1.57,4.07-1.15-1.9-2.19-3.31-3-3a2.88,2.88,0,0,1,1.26,2.82,6.84,6.84,0,0,1-.55-.64A3.3,3.3,0,0,0,35,7.86L35,7.93c-.51-.76-1.18-1.37-1.76-2.15.57,1,.34,2.13,1.1,2.92-1.1.92-2.43-.48-2.7-1.64-.36,1.41.88,4,1.32,4-.48.19-.47,2.08,0,2.87-.14-.2-1.05-2.45-1.19-2.68,0,3.79,1.06,5.05,1.82,5.78l0,0a1.91,1.91,0,0,0-.16,1.29c.32,2.5,1.77,2,1.86,2.38.29,1.17,0,1.15,1.88,3.45a15.56,15.56,0,0,0-3.79,3.11c-4.68,1.92-9.24,7.54-10.78,9.32s-7.41,11.83-8.15,12.91c-.55.8-2.77,1.48-3.74,1.76A5.61,5.61,0,0,0,9.11,52.5c-.36.38-.3.8.13.4-.75.82-.5,1.75,0,1.31a4.93,4.93,0,0,0-.2,1c0,.16.3.27.4.25s.44-.75.52-.89.53-.8.54-.79-.29.51-.52,1a3.89,3.89,0,0,0-.31,1.07c.23.38.42.34.72,0s.49-1.16.92-1.54c.86-.74,1.54-.77,1.77-.59s-1.48,1.76-.46,2c.64.19.61-1,2.46-2.34a7.41,7.41,0,0,0,1.19-2.56C16.89,50.3,25,42.25,26.84,39a68.93,68.93,0,0,0,7.65-4.91c1.14.7,4.35,2.66,5.88,3.52,2.45,1.38,8.08,3.18,11.17,5.14.48.31.91,1.28,1.65,2C50.48,47,39.34,58.67,39.9,59.12a.76.76,0,0,0,.22.11c-1.16,1.33-2.14,3-1.78,4.33.27,1,9.82,7.57,15.32,9.77a5.25,5.25,0,0,1-1.47,2.32c-1.58,1.47-2.81,1.68-2.74,2.31s3.34,1.26,4.1.68a35.51,35.51,0,0,0,3.22-3.28c1.62,1.32,2.92,2.38,3.48,2.92a6.18,6.18,0,0,1-2.1,2.37c-2,1.35-3.47,1.36-3.5,2.09s3.52,2,4.47,1.51c1.45-.78,2.36-2.13,3.94-2.92,1.18-.6,2-1.56,1.29-2.56a6.41,6.41,0,0,0-1-1.19c-2.89-2.15-4.41-6.24-6-9.12h0c-2.45-4.5-5.63-4.22-6.52-5,0,0,.79-.72,1.48-1.36A12.68,12.68,0,0,1,53.93,64c.32-.7,11.21-11.38,12.42-16.15,1.14-4.52-2.53-8-3.25-8.36a60.22,60.22,0,0,1-5.18-10.13c3.36.87,6.55,1.7,10.84,2.71,2.13,2.76,12,6.34,12.28,7.08,0,0,1.74,2,2,2.3,1.55,1.45,1.91,1.76,2.43,1.34.21-.17-1-1.34-.72-1.72.51-.77,4,1.37,4.36.41.12-.31-.84-.48-1.38-.83C88,40.68,89.46,41.21,89.56,40.36ZM45.33,63A8.44,8.44,0,0,0,44,62.82s1-.61,1.9-1.31A7.54,7.54,0,0,0,45.33,63Z" transform="translate(-8.77 -3.43)" fill="#1b1c20"/>
  </g>
</svg>
