<svg xmlns="http://www.w3.org/2000/svg" width="17.141" height="16.594" viewBox="0 0 17.141 16.594">
  <g id="Home" transform="translate(0 -4.89)">
    <path id="Path_276" data-name="Path 276" d="M16.926,12.987a.817.817,0,0,0-.067-1.17L9.2,5.114a.955.955,0,0,0-1.246.014L.266,12.174a.813.813,0,0,0-.037,1.168l.193.2a.84.84,0,0,0,1.154.088l.574-.514v7.531a.836.836,0,0,0,.836.836h3a.836.836,0,0,0,.836-.836V15.379H10.64v5.269a.79.79,0,0,0,.785.836H14.6a.836.836,0,0,0,.836-.836V13.223l.354.311c.2.172.606.034.917-.308Z" transform="translate(0 0)" fill="#a5a4a4"/>
  </g>
</svg>
