<svg id="Layer_1" data-name="Layer 1" xmlns="http://www.w3.org/2000/svg" width="64.11" height="93.28" viewBox="0 0 64.11 93.28">
  <title>icon_surfer_female</title>
  <g>
    <path d="M76,62.57C71.52,63.94,32.87,86.18,31,88.49c-1.31,1.58-6.44,5.26,8,7.54,10.56,1.66,18.6-1.38,24-5.84C66,87.66,83.34,68.32,84,65,84.32,63.32,78.06,62,76,62.57Z" transform="translate(-19.89 -3.21)" fill="#1b1c20"/>
    <path d="M79.91,38.63A9.69,9.69,0,0,0,77.08,37C74.62,35.16,67.57,25.72,65.6,24.6a53.68,53.68,0,0,0-12.55-4.4,34.82,34.82,0,0,0-3.74-3.43c1.39.64,3.3,2.76,4.7,3.11a31.46,31.46,0,0,1-3.89-4.62,12.73,12.73,0,0,0,2.52.8,12.47,12.47,0,0,1-2.79-1.83c2.82.34,5.58.23,7.48-1.07-2.77,1-6.59.46-9.49-.94-.19-.21-.38-.43-.56-.65,3,.46,6.51.77,8.63-1.14-2.73,1.55-6.68,1.08-9.74-.24-.67-.86-1.35-1.73-2.08-2.57,1.5.2,5.8.14,7-.64-1.65.67-6.3.2-8.11-.46a6.34,6.34,0,0,0-1.61-1c1.45.21,4.56.15,5.67-1.67-2.11,1.64-5.59,1-7.58,1l-.08,0a5.3,5.3,0,0,0,3-1.67c-3.18,1.36-7.52.1-10,2.45a7.34,7.34,0,0,0-3.62,5.71,6.88,6.88,0,0,1-1.65,3.4,5.78,5.78,0,0,0,1.67-1.45c-.49,3.28,1.4,9.14.37,13,1.3-2.38,1.2-5,.93-7.73a36,36,0,0,0,1.75,4c-.38-1.28-.67-2.4-.88-3.39a12.38,12.38,0,0,0,4.33,5.41c.22.27.49,1,.72,1.27-.62.53-3.13,2.75-3.13,3.58-1,1.5-.41,14.67-.35,16.42-1.72,2.85-2.46,4.8-5.48,12.27-.37.14-1.08.53-1.39.62-.49.08-1.55-.2-1.95.11A17.91,17.91,0,0,1,20,61.06c-.55.24.64,1,2.16.45.95-.33,2.27-.9,2.69-.49S23.2,62.4,24,62.88c.51.31,1.42-.65,2.82-1.88.38-.33,8.14-10.33,9.55-14.45,0,0,1.18-8.95,1.19-12.8,0,0,3.1,2.76,5.17,3.1A7.72,7.72,0,0,0,47,36.76l0,0a40,40,0,0,1,7.5,2.81,31.27,31.27,0,0,1,2.77,2.22C49.8,46.94,40.16,58.43,41,62.44c.22,1.09,1.74,2,3.93,2.85C48.23,69.42,53.42,75.5,57,81c-.72,3-6.72,3.51-4.94,4.66a4.91,4.91,0,0,0,3.25.77c1.39-.53,1.62-1.32,2.37-1.44,2-.32,2.86-1,2.92-1.79,0-.61-.71-1.31-1.37-2.6,0-.11-2.55-7.43-4.31-11.91a31.32,31.32,0,0,1,7.23,3.62c.49,2.56-4.52,3.75-2.65,4.53.88.37,1.75.67,2.28.33,1.39-.88,1.39-2.28,2.86-2.72,2-.59,2-2.14,1.6-2.86s-2.18-.94-3.44-2.06-8.54-6.88-13.43-8.89C55.1,57.32,68.3,49.57,70.24,46c0,.15,2.27-3.11.54-6.3S59.1,31.1,55.55,26.15c3.6.44,7.19.89,8.14,1.63.08.06,9.28,8.58,12.55,10.62.38,1.47.69,3.26,1.27,3.14s-.32-2.26.39-1.94c.07.64,0,1.44.43,1.5.11,0,.21-.14.28-.36-.06.46-.14,1.53.26,1.3-.05.26,0,.66.22.61,0,.23.06.39.34.41s1-1.77,1-2.12S80.34,39,79.91,38.63Z" transform="translate(-19.89 -3.21)" fill="#1b1c20"/>
  </g>
</svg>
