<svg id="Layer_1" data-name="Layer 1" xmlns="http://www.w3.org/2000/svg" width="27.29" height="90.4" viewBox="0 0 27.29 90.4">
  <path d="M49.19,88.11A32.57,32.57,0,0,0,50.33,85V9.45a5,5,0,0,0-2.27,0v75.6c.38,1.14.76,2.2,1.13,3.06Zm3.41-11.2.06-.25A199.13,199.13,0,0,0,57,50.19c.84-8.65,1.29-18.24.16-26.86-.44-3.32-1.58-9.75-4.51-12.58V76.91ZM45.79,10.74c-2.93,2.83-4.07,9.27-4.51,12.59-1.13,8.62-.68,18.21.16,26.86a199.13,199.13,0,0,0,4.29,26.47l.06.27V10.74Zm3.4-4.06c21.83,0,6.13,85.55,0,85.55s-21.82-85.55,0-85.55Zm0-1.58a8.85,8.85,0,0,1,3.72.79c11.45,5.23,9.22,34.68,8.25,44.71a199.55,199.55,0,0,1-4.87,29,67.5,67.5,0,0,1-3,9.65c-.68,1.63-2,4.54-4.07,4.54s-3.38-2.91-4.06-4.54a67.5,67.5,0,0,1-3-9.65,199.55,199.55,0,0,1-4.87-29c-.92-9.52-3.92-45.5,12-45.5Z" transform="translate(-35.55 -4.25)" fill="#231f20" stroke="#231f20" stroke-linejoin="round" stroke-width="1.69" fill-rule="evenodd"/>
</svg>
