<svg id="Layer_1" data-name="Layer 1" xmlns="http://www.w3.org/2000/svg" viewBox="0 0 50 50"><defs><style>.cls-1{fill:#14b2cd;}.cls-2{fill:#fff;}</style></defs><title>Artboard 5_1</title><circle class="cls-1" cx="25" cy="25" r="24.04"/><path class="cls-2" d="M19.18,20.62a5.6,5.6,0,0,1,6-5.18c3.51,0,5.73,2,5.73,5a4.13,4.13,0,0,1-2.11,3.84,4.41,4.41,0,0,1,2.8,4.36c0,3.76-2.91,5.87-6.53,5.87s-6.29-2.16-6.59-5.68H22a2.9,2.9,0,0,0,3,2.61,2.88,2.88,0,1,0-.1-5.76h-.47V23.15H25a2.34,2.34,0,0,0,2.5-2.5,2.28,2.28,0,0,0-2.42-2.41,2.42,2.42,0,0,0-2.52,2.38Z"/></svg>