<svg xmlns="http://www.w3.org/2000/svg" viewBox="0 0 17.13 44.31"><defs><style>.cls-1{fill:#aedfe9;}.cls-2{fill:#fff;}</style></defs><title>Asset 6</title><g id="Layer_2" data-name="Layer 2"><g id="Layer_1-2" data-name="Layer 1"><path class="cls-1" d="M8.56.48C-6,2.9,3.48,41.7,3.48,41.7s5.24,4.79,10.16,0c0,0,9.49-38.8-5.08-41.22"/><path class="cls-2" d="M8.56,44.2a.35.35,0,0,1-.33-.36V.49A.35.35,0,0,1,8.56.13a.34.34,0,0,1,.33.36V43.84A.34.34,0,0,1,8.56,44.2Z"/><path class="cls-1" d="M8.85,44.31A9.43,9.43,0,0,1,3.2,42.08L3.1,42l0-.15A129,129,0,0,1,.53,27C-.63,16.25.11,8.56,2.74,4.15A8.1,8.1,0,0,1,8.5,0h.13a8.06,8.06,0,0,1,5.75,4.14C17,8.56,17.76,16.25,16.59,27a130.32,130.32,0,0,1-2.52,14.81L14,42l-.1.1A7.12,7.12,0,0,1,8.85,44.31Zm-5-2.88c.76.64,5.15,4,9.38,0,.5-2.11,6.2-27,.39-36.77A7.24,7.24,0,0,0,8.56,1,7.24,7.24,0,0,0,3.48,4.67C-2.31,14.38,3.36,39.24,3.87,41.43Z"/></g></g></svg>