<svg xmlns="http://www.w3.org/2000/svg" viewBox="0 0 17.19 53.11"><defs><style>.cls-1{fill:#aedfe9;}.cls-2{fill:#fff;}</style></defs><title>Asset 2</title><g id="Layer_2" data-name="Layer 2"><g id="Layer_1-2" data-name="Layer 1"><path class="cls-1" d="M8,.31C2.78,3.33-5.17,30.09,5.47,52a.57.57,0,0,0,.52.33h5a.6.6,0,0,0,.53-.33C22.14,30.09,13.29,3,9,.31A.82.82,0,0,0,8,.31Z"/><path class="cls-2" d="M8.71,53a.33.33,0,0,1-.33-.33V.63A.33.33,0,0,1,8.71.3.33.33,0,0,1,9,.63v52A.33.33,0,0,1,8.71,53Z"/><path class="cls-1" d="M11.2,53.11h-5a1,1,0,0,1-.92-.58C-.95,39.66-.35,26.21.57,19.34,1.79,10.21,5,2,8,.25a1.26,1.26,0,0,1,1.51,0c1.18.73,2.59,3.05,3.86,6.34a58.73,58.73,0,0,1,3.18,12.6c1,7,1.77,20.63-4.39,33.33A1,1,0,0,1,11.2,53.11ZM8.72.88A.62.62,0,0,0,8.41,1h0C6,2.41,2.74,9.7,1.44,19.45c-.9,6.78-1.5,20,4.64,32.7a.16.16,0,0,0,.13.08h5a.13.13,0,0,0,.13-.08c6.06-12.5,5.3-25.93,4.31-32.82C14.18,9.17,10.84,2.16,9,1A.6.6,0,0,0,8.72.88Z"/><path class="cls-2" d="M14.44,39.3a.37.37,0,0,0-.24-.44L9.32,37.18a2.12,2.12,0,0,0-1.27,0s-3.79,1.33-4.93,1.75a.38.38,0,0,0-.23.45c.32,1.2,2.05,8.11,2.05,8.11s.07,0,.14.06h0l3.19.6a1.73,1.73,0,0,0,.74,0l3.15-.58h0c.07,0,.13,0,.14-.06Z"/></g></g></svg>