<svg xmlns="http://www.w3.org/2000/svg" viewBox="0 0 28.18 75.78"><defs><style>.cls-1{fill:#14b2cd;}.cls-2{fill:#fff;}.cls-3{fill:#aedfe9;}</style></defs><title>Asset 7</title><g id="Layer_2" data-name="Layer 2"><g id="Layer_1-2" data-name="Layer 1"><path class="cls-1" d="M5.11,68.36C1.24,56,.39,43,1.12,30.19A144.53,144.53,0,0,1,3.09,12C3.92,7.55,4.92.92,10.65.48,19.46-.19,19.54,19.56,20,25.19c1.12,14.37.51,29.24-3.77,43.09l0,.08s-1.52,6.21-5.31,6.34C10.87,74.7,7.1,74.7,5.11,68.36Z"/><path class="cls-2" d="M10.3,29.3A.33.33,0,0,1,10,29V.68a.33.33,0,0,1,.66,0V29A.33.33,0,0,1,10.3,29.3Z"/><path class="cls-2" d="M10.19,75a.33.33,0,0,1-.33-.33v-9.2a.33.33,0,0,1,.66,0v9.2A.33.33,0,0,1,10.19,75Z"/><path class="cls-1" d="M10.45,75.11c-.2,0-4.14-.08-6.2-6.65h0C.73,57.25-.59,44.71.24,30.14a145,145,0,0,1,2-18.22l.09-.51C3.11,7.05,4.32.47,10.17,0a5.45,5.45,0,0,1,4.14,1.39c4.54,4,5.18,15.4,5.53,21.54.05.86.09,1.6.14,2.18,1.29,16.66.05,30.81-3.79,43.25l0,.07c-.1.41-1.71,6.52-5.72,6.66ZM5.09,68.2c1.86,5.91,5.21,6,5.35,6,3.38-.12,4.86-6,4.88-6l0-.11c3.81-12.33,5-26.37,3.75-42.92-.05-.59-.09-1.34-.14-2.2-.31-5.59-1-17.2-5.23-20.93A4.55,4.55,0,0,0,10.24.9C5.07,1.29,4,7.23,3.18,11.57l-.1.51a144.56,144.56,0,0,0-2,18.11c-.82,14.46.48,26.9,4,38Z"/><path class="cls-1" d="M25,62.34V13.07h1a.66.66,0,0,0,0-1.32H22.73a.66.66,0,0,0,0,1.32h1V62.34c-.79.64-3.49,3.42-3.18,11.31v.13l.08.11,0,0h0l.09.09A4.84,4.84,0,0,0,24,75.76l.31,0h.19l.31,0A4.84,4.84,0,0,0,28,74l.09-.09h0l0,0,.08-.11v-.13C28.47,65.76,25.77,63,25,62.34Z"/><path class="cls-3" d="M17.27,35c0-.36-.06-.8-.09-1.31a.34.34,0,0,0-.13-.25h0l-5.93-4.37a1.24,1.24,0,0,0-1.67,0l-6,4.41h0a.34.34,0,0,0-.13.23c-.17,1.78-.25,3-.35,4.76A72.49,72.49,0,0,0,5.36,63.3a.35.35,0,0,0,.18.21h0c1.6.75,4.05,1.89,4.19,2a1,1,0,0,0,.5.13.94.94,0,0,0,.48-.13c.15-.08,2.55-1.18,4.13-1.9h0a.3.3,0,0,0,.18-.2C17.41,55.11,18.15,45.82,17.27,35Z"/></g></g></svg>