<svg id="Layer_1" data-name="Layer 1" xmlns="http://www.w3.org/2000/svg" viewBox="0 0 50 50"><defs><style>.cls-1{fill:#14b2cd;}.cls-2{fill:#fff;}</style></defs><title>Artboard 3</title><circle class="cls-1" cx="25" cy="25" r="24.12"/><path class="cls-2" d="M38.63,35.64S34,28,10.9,26l1.46,2.68L9,29.89S26.3,40.21,38.63,35.64Z"/><path class="cls-1" d="M15.39,28.64l4.08-2.91c.57.13,1.14.28,1.7.42l1,.26-6.1,3.5A3.85,3.85,0,0,1,15,30c-.14,0-.31-.05-.36-.16s.05-.39.32-.71A4.7,4.7,0,0,1,15.39,28.64Z"/><path class="cls-1" d="M15.15,30.2h-.21a.63.63,0,0,1-.51-.26c-.1-.22,0-.52.34-.92a4.7,4.7,0,0,1,.5-.51l0,0,4.14-2.95.08,0,1.51.37.19,0,1,.26.44.12-6.51,3.73h0A5.43,5.43,0,0,1,15.15,30.2Zm-.38-.44a.67.67,0,0,0,.21.06,4,4,0,0,0,1-.09l5.68-3.26-.54-.14-.19,0-1.42-.35-4,2.85a4.33,4.33,0,0,0-.45.47A1.06,1.06,0,0,0,14.77,29.76Z"/><path class="cls-1" d="M14.92,30.34A.69.69,0,0,1,14.3,30c-.14-.27,0-.62.36-1.08a4.48,4.48,0,0,1,.51-.53l4.23-3,.15,0,1.51.37.19.05,1,.26.8.22-6.86,3.93h-.06a4.69,4.69,0,0,1-1,.11Zm6.34-3.81-.18-.05-.19-.05c-.44-.11-.9-.23-1.35-.33l-3.93,2.8a4.57,4.57,0,0,0-.43.44,2.69,2.69,0,0,0-.22.32h0a3.07,3.07,0,0,0,.94-.08Z"/><path class="cls-1" d="M15.15,30.54H14.9a.94.94,0,0,1-.77-.45c-.17-.35-.05-.77.38-1.29a4.58,4.58,0,0,1,.54-.55h0l4.3-3.06.23,0,1.51.37.2.05,1,.26,1.23.34-7.27,4.17h-.09A5.24,5.24,0,0,1,15.15,30.54Zm.13-2a4.91,4.91,0,0,0-.48.5c-.32.39-.43.68-.34.88a.56.56,0,0,0,.48.25h.21a5.33,5.33,0,0,0,.93-.11h0l6.45-3.69-.36-.1-1-.26L21,26l-1.5-.37-.07,0Zm-.13,1.33h-.21l-.26,0,.12-.23a1.37,1.37,0,0,1,.24-.35,4.56,4.56,0,0,1,.44-.47h0l4-2.85.09,0c.45.1.9.22,1.34.33l.2.05.18.05.44.11L16,29.76h0A4,4,0,0,1,15.15,29.86Zm.57-.81a4,4,0,0,0-.4.41v0l.56-.07,4.9-2.82-1.19-.29Z"/><path class="cls-1" d="M25.87,27.72l-.45-.35,2.37.74a18.57,18.57,0,0,1-1,4.4c-.31.7-.51.75-.58.74s-.22-.19-.32-.5a3.15,3.15,0,0,1-.12-.51l.11-4.49Z"/><path class="cls-1" d="M26.26,33.44h0c-.2,0-.35-.23-.48-.63a4.43,4.43,0,0,1-.12-.54h0v0l.11-4.41-.41-.31-.84-.64,1,.31,2.21.69L28,28l0,.15a17.42,17.42,0,0,1-1,4.46C26.73,33.17,26.5,33.44,26.26,33.44Zm0-.36ZM26,32.23a4.6,4.6,0,0,0,.12.47.89.89,0,0,0,.17.36,1.78,1.78,0,0,0,.38-.63,16.33,16.33,0,0,0,.93-4.19h0l-1.48-.46Z"/><path class="cls-1" d="M26.2,33.59c-.26,0-.46-.27-.61-.73-.07-.25-.12-.49-.13-.56v0l.1-4.36-.35-.27-1.52-1.16,1.83.56,2.19.69.45.14,0,.28a17.3,17.3,0,0,1-1,4.5c-.2.45-.47,1-.87,1Zm0-5.61-.1,4.24a3.86,3.86,0,0,0,.1.43c0,.06,0,.1.05.14a3,3,0,0,0,.22-.42,16.31,16.31,0,0,0,.9-4Z"/><path class="cls-1" d="M26.26,33.78h-.09c-.34-.05-.58-.33-.75-.87a3.35,3.35,0,0,1-.14-.58v-.07l.1-4.26-.27-.21L22.74,26l2.83.88,2.18.68.61.19-.05.43a17.71,17.71,0,0,1-1,4.56C27.08,33.22,26.76,33.78,26.26,33.78Zm-.62-1.53v0a4.41,4.41,0,0,0,.12.53c.12.38.27.58.45.61h0c.33,0,.61-.63.7-.84a17.21,17.21,0,0,0,1-4.44L28,28l-.32-.1-2.18-.68L24.63,27l.69.53.36.27.07.06Zm.61.93-.13-.32a.88.88,0,0,1-.05-.15,3.13,3.13,0,0,1-.11-.46v0l.11-4.5.24.07,1.17.37.15,0,0,.15a16.75,16.75,0,0,1-.92,4.08,3.46,3.46,0,0,1-.23.44Zm.08-1s0,0,0,.08a15.54,15.54,0,0,0,.87-3.81l-.79-.25Z"/><path class="cls-2" d="M20.65,24.94l-5.26,3.7a4.7,4.7,0,0,0-.47.49c-.27.32-.38.58-.32.71s.22.15.36.16a3.85,3.85,0,0,0,1.09-.09l6.62-3.72c-.53-.35-1.11-.71-1.71-1.05Z"/><path class="cls-2" d="M23.1,18.49l.6-.44-1.16.06-1.23.05a5,5,0,0,0-2.65.6q-.3.19-.3.36c0,.13.18.24.28.3a2.15,2.15,0,0,0,.3.12l2.48.39A20.35,20.35,0,0,1,23.1,18.49Z"/><path class="cls-2" d="M31.39,17.41A2.15,2.15,0,1,0,29.86,15,2.16,2.16,0,0,0,31.39,17.41Z"/><path class="cls-2" d="M29.29,21.52h0s-.2-.73.66-2.85h0a1.79,1.79,0,0,0-.89-2.45c-.9-.33-2.06.4-2.85.8a15.82,15.82,0,0,0-1.71,1l-2.6,2.09q-.67.64-1.32,1.38h0A2.33,2.33,0,0,0,20,22.94a1.77,1.77,0,0,0,.66,1.22,3.43,3.43,0,0,0,.59.42,40.11,40.11,0,0,1,4.62,3.14l0,0-.11,4.49a3.15,3.15,0,0,0,.12.51c.1.31.21.49.32.5s.27,0,.58-.74a23.78,23.78,0,0,0,1.12-5.79c.07-.68-.2-.84-.72-1.28l-3.59-3a1.42,1.42,0,0,1,0-.68.15.15,0,0,1,.13,0l1.12,1,2-1.41,0-2.34a1.16,1.16,0,0,1,.52-.29.12.12,0,0,1,.07.11L27.36,22a.94.94,0,0,0,.19.58c.55.69,2,2.46,2.65,3.22q.26.29.39.24c.14,0,.21-.4.22-.58Z"/></svg>